<svg width="48" height="48" viewBox="0 0 48 48" fill="none" xmlns="http://www.w3.org/2000/svg">
<path d="M24 0C10.7621 0 0 10.7621 0 24C0 37.2379 10.7621 48 24 48C37.2379 48 48 37.2379 48 24C48 10.7621 37.2379 0 24 0ZM5.10316 16.0168C8.23579 8.64 15.5116 3.48632 24 3.48632C32.4884 3.48632 39.7642 8.64 42.8968 16.0168C43.5032 17.4821 42.2905 19.0989 40.7242 18.9474C37.9453 18.7453 35.1663 18.5937 32.3874 18.4926C31.5284 18.4421 30.72 18.1389 30.1137 17.5832C28.4968 16.1684 26.3747 15.3095 24.0505 15.3095C21.7263 15.3095 19.6042 16.1684 17.9874 17.5832C17.3305 18.1389 16.5221 18.4926 15.7137 18.4926C12.8842 18.5937 10.1053 18.7453 7.32632 18.9474C5.70947 19.0989 4.49684 17.4821 5.10316 16.0168ZM17.0274 43.3011C10.2063 40.8253 5.05263 34.8632 3.78947 27.5368C3.53684 25.92 5.05263 24.6568 6.61895 25.1621C13.3895 27.4358 18.4421 33.1958 19.7053 40.2189L19.8063 40.8253C20.16 42.4421 18.5937 43.8568 17.0274 43.3011ZM24 28.3453C21.8779 28.3453 20.1095 26.6274 20.1095 24.4547C20.1095 22.3326 21.8274 20.5642 24 20.5642C26.1726 20.5642 27.8905 22.2821 27.8905 24.4547C27.8905 26.6274 26.1221 28.3453 24 28.3453ZM30.9726 43.3011C29.4063 43.8568 27.8905 42.4926 28.1937 40.8758L28.2947 40.2695C29.5579 33.1958 34.6105 27.4358 41.3811 25.1621C42.8968 24.6568 44.4632 25.9705 44.2105 27.5368C42.9474 34.8632 37.7937 40.8253 30.9726 43.3011Z" fill="#005570"/>
</svg>
